<?xml version="1.0" encoding="UTF-8"?>
<svg id="_图层_2" xmlns="http://www.w3.org/2000/svg" version="1.1" viewBox="0 0 40 40">
<defs>
    <style>
      .st0 {
        fill: #fff;
      }
    </style>
  </defs>
  <g id="_图层_1-2">
    <g>
      <path class="st0" d="M20,0C8.9,0,0,8.9,0,20s8.9,20,20,20,20-9,20-20S31,0,20,0ZM20,37c-9.4,0-17-7.6-17-17S10.6,3,20,3s17,7.6,17,17-7.6,17-17,17Z"/>
      <path class="st0" d="M26.5,12.8l-9,4.8h0l-4.8,8.9c-.2.5.2,1,.7.7l8.9-4.8h0l4.8-8.9c.2-.4-.2-.9-.7-.7Z"/>
    </g>
  </g>
</svg>