<?xml version="1.0" encoding="UTF-8"?>
<svg id="_图层_2" xmlns="http://www.w3.org/2000/svg" version="1.1" viewBox="0 0 51 51">
  <!-- Generator: Adobe Illustrator 29.0.1, SVG Export Plug-In . SVG Version: 2.1.0 Build 192)  -->
  <defs>
    <style>
      .st0 {
        fill: #898989;
      }
    </style>
  </defs>
  <g id="_图层_1-2">
    <path class="st0" d="M5.9,50.4c-3.1-.8-5.4-3.6-5.4-6.8V7.5C.6,3.7,3.6.6,7.4.6h36.1c3.8,0,6.8,3.1,6.8,6.8v36.1c0,3.8-3.1,6.8-6.8,6.8H5.9ZM19.4,47.1h24.5c1.6-.2,2.8-1.4,3.1-3V7.1c-.2-1.8-1.7-3.1-3.5-3.1h-24.1v43ZM6.9,4c-1.5.2-2.6,1.4-2.9,3v37c.2,1.6,1.4,2.8,3,3.1h9.2s0-43,0-43H6.9Z"/>
  </g>
</svg>