<?xml version="1.0" encoding="UTF-8"?>
<svg id="_图层_2" xmlns="http://www.w3.org/2000/svg" version="1.1" viewBox="0 0 48.2 45">
<defs>
    <style>
      .st0 {
        fill: #ef4d4d;
      }
    </style>
  </defs>
  <path class="st0" d="M27.4,2.4h-6.7C11.3,2.4,3.6,10.1,3.6,19.5v5.9c0,9.5,7.7,17.2,17.2,17.2h6.7c9.5,0,17.2-7.7,17.2-17.2v-5.9c0-9.5-7.7-17.2-17.2-17.2ZM24.1,36.4c-1.2,0-2.2-1-2.2-2.2s1-2.2,2.2-2.2,2.2,1,2.2,2.2-1,2.2-2.2,2.2ZM28.3,13.4l-2.2,15.5c-.2,1.1-1.2,1.9-2.3,1.7-.9-.1-1.6-.8-1.7-1.7l-2.2-15.5c-.3-2.3,1.3-4.4,3.6-4.7s4.4,1.3,4.7,3.6c0,.4,0,.8,0,1.2Z"/>
</svg>